<svg xmlns="http://www.w3.org/2000/svg" xmlns:xlink="http://www.w3.org/1999/xlink" viewBox="0 0 198 198"><defs><style>.cls-1{fill:url(#linear-gradient);}.cls-2{fill:url(#radial-gradient);}</style><linearGradient id="linear-gradient" y1="99" x2="198" y2="99" gradientUnits="userSpaceOnUse"><stop offset="0" stop-color="#3ac1f3"/><stop offset="1" stop-color="#1e72e3"/></linearGradient><radialGradient id="radial-gradient" cx="104.66" cy="99.13" r="49.74" gradientUnits="userSpaceOnUse"><stop offset="0" stop-color="#fd9271"/><stop offset="0" stop-color="#3ac1f3"/><stop offset="1" stop-color="#1e72e3"/></radialGradient></defs><g id="Layer_2" data-name="Layer 2"><g id="Layer_1-2" data-name="Layer 1"><path class="cls-1" d="M99,17A82,82,0,1,1,17,99,82.1,82.1,0,0,1,99,17M99,0a99,99,0,1,0,99,99A99,99,0,0,0,99,0Z"/></g><g id="Layer_2-2" data-name="Layer 2"><path class="cls-2" d="M49.26,99.13c0-24.54,20.42-43.35,48.59-43.35,21.36,0,39.52,11.91,45,29.29.53,2-.67,3.34-2.94,3.34H124.15A3.83,3.83,0,0,1,120.41,86C116.67,78.76,108,74.36,97.85,74.36c-16.55,0-27.23,9.88-27.23,24.77S81.3,123.9,97.85,123.9c10.15,0,18.82-4.41,22.56-11.67a3.83,3.83,0,0,1,3.74-2.38H139.9c2.27,0,3.47,1.19,2.94,3.09-5.21,17.39-23.5,29.54-45,29.54C69.68,142.48,49.26,123.66,49.26,99.13Z"/><path class="cls-2" d="M153.5,134.06v6.5c0,.16-.1.25-.28.25H152c-.18,0-.28-.09-.28-.25v-4l-1.43,3a.31.31,0,0,1-.32.19h-.76a.33.33,0,0,1-.33-.19l-1.42-3v4a.25.25,0,0,1-.28.25h-1.24c-.18,0-.28-.09-.28-.25v-6.5c0-.16.1-.25.28-.25h1.5a.33.33,0,0,1,.33.19l1.82,3.85,1.81-3.85a.33.33,0,0,1,.33-.19h1.5C153.4,133.81,153.5,133.9,153.5,134.06Z"/><path class="cls-2" d="M154.41,138.87c0-.17.1-.26.28-.26h1.23a.26.26,0,0,1,.29.24c.09.36.43.54,1.09.54s1-.25,1-.54-.56-.59-1.24-.8c-1.11-.34-2.51-.75-2.51-2.28s1.28-2.1,2.61-2.1a2.42,2.42,0,0,1,2.7,2.08c0,.17-.1.26-.28.26h-1.23a.26.26,0,0,1-.29-.24c-.09-.37-.38-.54-.9-.54s-.82.25-.82.54.46.62,1.11.83c1.12.35,2.65.71,2.65,2.25s-1.26,2.1-2.76,2.1S154.54,140.32,154.41,138.87Z"/></g></g></svg>