<svg xmlns="http://www.w3.org/2000/svg" viewBox="0 0 391 369.3"><defs><style>.cls-1{fill:#22232d;}.cls-2,.cls-3{fill:none;stroke:#8d9bb4;stroke-miterlimit:10;}.cls-2{stroke-width:24px;}.cls-3{stroke-linecap:round;stroke-width:20px;}</style></defs><g id="Layer_2" data-name="Layer 2"><g id="Layer_33_copy" data-name="Layer 33 copy"><path class="cls-1" d="M12,257.12v-212A33.16,33.16,0,0,1,45.16,12H345.84A33.16,33.16,0,0,1,379,45.16V256.84A33.16,33.16,0,0,1,345.84,290H230l-93.46,66.76a2.87,2.87,0,0,1-4.54-2.34V291l-87.12-.73A33.16,33.16,0,0,1,12,257.12Z"/><line class="cls-1" x1="98.39" y1="115.81" x2="284.39" y2="115.81"/><line class="cls-1" x1="98.77" y1="186.31" x2="207.77" y2="186.31"/></g><g id="Layer_33" data-name="Layer 33"><path class="cls-2" d="M12,257.12v-212A33.16,33.16,0,0,1,45.16,12H345.84A33.16,33.16,0,0,1,379,45.16V256.84A33.16,33.16,0,0,1,345.84,290H230l-93.46,66.76a2.87,2.87,0,0,1-4.54-2.34V291l-87.12-.73A33.16,33.16,0,0,1,12,257.12Z"/><line class="cls-3" x1="98.39" y1="115.81" x2="284.39" y2="115.81"/><line class="cls-3" x1="98.77" y1="186.31" x2="207.77" y2="186.31"/></g></g></svg>