<svg xmlns="http://www.w3.org/2000/svg" viewBox="0 0 391 364.83"><defs><style>.cls-1{fill:#22232d;}.cls-2,.cls-3{fill:none;stroke:#8d9bb4;stroke-miterlimit:10;}.cls-2{stroke-linecap:round;stroke-width:20px;}.cls-3{stroke-width:24px;}</style></defs><g id="Layer_2" data-name="Layer 2"><g id="Layer_33" data-name="Layer 33"><path class="cls-1" d="M310.6,348.34,311,290h34.84A33.16,33.16,0,0,0,379,256.84V45.16A33.16,33.16,0,0,0,345.84,12H45.16A33.16,33.16,0,0,0,12,45.16v212a33.16,33.16,0,0,0,32.88,33.15L213,291l90.56,61.05A4.51,4.51,0,0,0,310.6,348.34Z"/><line class="cls-2" x1="98.39" y1="115.81" x2="284.39" y2="115.81"/><line class="cls-2" x1="171.77" y1="186.5" x2="280.77" y2="186.5"/></g><g id="Layer_33_copy_2" data-name="Layer 33 copy 2"><path class="cls-3" d="M310.6,348.34,311,290h34.84A33.16,33.16,0,0,0,379,256.84V45.16A33.16,33.16,0,0,0,345.84,12H45.16A33.16,33.16,0,0,0,12,45.16v212a33.16,33.16,0,0,0,32.88,33.15L213,291l90.56,61.05A4.51,4.51,0,0,0,310.6,348.34Z"/></g></g></svg>