<svg xmlns="http://www.w3.org/2000/svg" viewBox="0 0 426 280"><defs><style>.cls-1{fill:#22232d;}.cls-2,.cls-3{fill:none;stroke:#cf4545;stroke-width:24px;}.cls-2{stroke-miterlimit:10;}.cls-3{stroke-linecap:round;stroke-linejoin:round;}</style></defs><g id="Layer_2" data-name="Layer 2"><g id="Layer_35_copy" data-name="Layer 35 copy"><circle class="cls-1" cx="213" cy="73" r="61"/><circle class="cls-1" cx="61.5" cy="72.5" r="40.5"/><circle class="cls-1" cx="365.5" cy="72.5" r="40.5"/><path class="cls-1" d="M102,268V224s0-21,11-35,46.41-24,70-11c20,11,31,11,31,11s12,0,33-11c27.35-14.32,54.64-4.55,69,13,9,11,14,34,14,34v43Z"/></g><g id="Layer_35" data-name="Layer 35"><circle class="cls-2" cx="213" cy="73" r="61"/><circle class="cls-2" cx="61.5" cy="72.5" r="40.5"/><circle class="cls-2" cx="365.5" cy="72.5" r="40.5"/><path class="cls-3" d="M12,197s13-38,42-38H84"/><path class="cls-3" d="M414,197s-11-39-41-39H346"/><path class="cls-3" d="M102,268V224s0-21,11-35,46.41-24,70-11c20,11,31,11,31,11s12,0,33-11c27.35-14.32,54.64-4.55,69,13,9,11,14,34,14,34v43Z"/></g></g></svg>