<svg xmlns="http://www.w3.org/2000/svg" viewBox="0 0 380 329.01"><defs><style>.cls-1{fill:#22232d;}.cls-2,.cls-3{fill:none;stroke:#cf4545;stroke-miterlimit:10;stroke-width:24px;}.cls-3{stroke-linecap:round;}</style></defs><g id="Layer_2" data-name="Layer 2"><g id="Layer_24" data-name="Layer 24"><g id="Layer_19_copy" data-name="Layer 19 copy"><g id="Layer_19_copy_3" data-name="Layer 19 copy 3"><path class="cls-1" d="M55.11,238.5C28.89,216.91,12,182.05,12,149.5,12,73.56,91.69,12,190,12S368,73.56,368,149.5,288.31,287,190,287a222.53,222.53,0,0,1-72.16-11.77c-2.82-1-5.59-2-8.33-3.06"/><path class="cls-1" d="M122,270s-56.72,52-96.61,46.62C16,315.36,6.87,309.22,17,297c5.33-6.42,39-34,34-66"/></g><path class="cls-2" d="M55.11,238.5C28.89,216.91,12,182.05,12,149.5,12,73.56,91.69,12,190,12S368,73.56,368,149.5,288.31,287,190,287a222.53,222.53,0,0,1-72.16-11.77c-2.82-1-5.59-2-8.33-3.06"/><path class="cls-2" d="M122,270s-56.72,52-96.61,46.62C16,315.36,6.87,309.22,17,297c5.33-6.42,39-34,34-66"/></g><g id="Layer_38" data-name="Layer 38"><line class="cls-3" x1="91" y1="120" x2="297" y2="120"/><line class="cls-3" x1="89" y1="179" x2="214" y2="179"/></g></g></g></svg>