<svg xmlns="http://www.w3.org/2000/svg" viewBox="0 0 357.96 364.97"><defs><style>.cls-1{fill:#e5eef8;}.cls-2{fill:none;stroke:#22232d;stroke-linecap:round;stroke-miterlimit:10;stroke-width:24px;}</style></defs><g id="Layer_2" data-name="Layer 2"><g id="Layer_27" data-name="Layer 27"><polygon class="cls-1" points="15.48 349.42 22.97 303.28 76.48 215.42 279.85 12.02 345.47 71.75 178.98 261.61 127.09 309.32 31.19 352.97 15.48 349.42"/></g><g id="Layer_26" data-name="Layer 26"><path class="cls-2" d="M78.48,145.42l87.89-88.79a13.4,13.4,0,0,1,19.59.59l19.52,22.2,61.93-61.93a18.73,18.73,0,0,1,26.31-.19l46.57,45.3a18.74,18.74,0,0,1,.61,26.24L146.3,296.47a22,22,0,0,1-4.13,3.45c-15.77,10.13-107.51,67.77-126.69,49.5-19.67-18.73,50.1-119,59.06-131.68a22.37,22.37,0,0,1,2-2.45L205.48,79.42l69,73"/></g></g></svg>