<svg xmlns="http://www.w3.org/2000/svg" viewBox="0 0 439 272.27"><defs><style>.cls-1,.cls-2{fill:none;stroke:#cf4545;stroke-miterlimit:10;stroke-width:24px;}.cls-2{stroke-linecap:round;}</style></defs><g id="Layer_2" data-name="Layer 2"><g id="Layer_29" data-name="Layer 29"><path class="cls-1" d="M53,59.89H84l42.48-43.38a15,15,0,0,1,11-4.51L299,14.89l42,45h45v135H318l-33.78,45.9a10.11,10.11,0,0,1-13,2.9L255,234.89l-23.71,22.89a8.87,8.87,0,0,1-11.29.85l-25-19.74L169,257.7a12.56,12.56,0,0,1-15.16-1.16L80,190.89l-27-1Z"/><path class="cls-2" d="M209.94,13.3,156,64.89s-25,34,0,54,51,0,51,0l36-36"/><line class="cls-2" x1="316.72" y1="196.63" x2="216.15" y2="109.74"/><path class="cls-2" d="M53,59.89H12v160H40.14A12.86,12.86,0,0,0,53,207V162.36"/><path class="cls-2" d="M386,59.89h41v160H404.27A18.27,18.27,0,0,1,386,201.62v-4.73"/></g></g></svg>