<?xml version="1.0" encoding="utf-8"?>
<!-- Generator: Adobe Illustrator 24.2.1, SVG Export Plug-In . SVG Version: 6.00 Build 0)  -->
<svg version="1.1" xmlns="http://www.w3.org/2000/svg" xmlns:xlink="http://www.w3.org/1999/xlink" x="0px" y="0px"
	 viewBox="0 0 500 500" style="enable-background:new 0 0 500 500;" xml:space="preserve">
<style type="text/css">
	.st0{fill:#C44949;}
	.st1{display:none;}
	.st2{display:inline;}
	.st3{fill:none;stroke:#FFFDFD;stroke-width:5;stroke-miterlimit:10;}
	.st4{fill:#C44949;stroke:#FFFDFD;stroke-width:5;stroke-miterlimit:10;}
</style>
<g id="Layer_2">
	<rect x="0.5" y="0.5" class="st0" width="500" height="500"/>
</g>
<g id="Layer_4" class="st1">
	<g id="Layer_3" class="st2">
		<rect x="98.5" y="208.5" class="st3" width="342.6" height="65"/>
		<line class="st4" x1="417" y1="208.5" x2="417" y2="273.5"/>
		<line class="st4" x1="393.5" y1="207" x2="393.5" y2="272"/>
		<line class="st4" x1="371.5" y1="209" x2="371.5" y2="274"/>
		<line class="st4" x1="349.3" y1="209.4" x2="349.3" y2="274.4"/>
		<line class="st4" x1="326.8" y1="207.9" x2="326.8" y2="272.9"/>
		<line class="st4" x1="301.5" y1="210" x2="301.5" y2="275"/>
		<line class="st4" x1="278.5" y1="210.7" x2="278.5" y2="275.7"/>
		<line class="st4" x1="255" y1="209.2" x2="255" y2="274.2"/>
		<line class="st4" x1="233" y1="211.2" x2="233" y2="276.2"/>
		<line class="st4" x1="210.8" y1="211.6" x2="210.8" y2="276.6"/>
		<line class="st4" x1="188.3" y1="210.1" x2="188.3" y2="275.1"/>
		<line class="st4" x1="163" y1="212.2" x2="163" y2="277.2"/>
	</g>
</g>
<g id="Layer_4_copy" class="st1">
	<g id="Layer_3_copy" class="st2">
		<rect x="130.5" y="276.5" class="st3" width="342.6" height="65"/>
		<line class="st4" x1="449" y1="276.5" x2="449" y2="341.5"/>
		<line class="st4" x1="425.5" y1="275" x2="425.5" y2="340"/>
		<line class="st4" x1="403.5" y1="277" x2="403.5" y2="342"/>
		<line class="st4" x1="381.3" y1="277.4" x2="381.3" y2="342.4"/>
		<line class="st4" x1="358.8" y1="275.9" x2="358.8" y2="340.9"/>
		<line class="st4" x1="333.5" y1="278" x2="333.5" y2="343"/>
		<line class="st4" x1="310.5" y1="278.7" x2="310.5" y2="343.7"/>
		<line class="st4" x1="287" y1="277.2" x2="287" y2="342.2"/>
		<line class="st4" x1="265" y1="279.2" x2="265" y2="344.2"/>
		<line class="st4" x1="242.8" y1="279.6" x2="242.8" y2="344.6"/>
		<line class="st4" x1="220.3" y1="278.1" x2="220.3" y2="343.1"/>
		<line class="st4" x1="195" y1="280.2" x2="195" y2="345.2"/>
	</g>
	<g id="Layer_3_copy_2" class="st2">
		<rect x="70.5" y="343.5" class="st3" width="342.6" height="65"/>
		<line class="st4" x1="389" y1="343.5" x2="389" y2="408.5"/>
		<line class="st4" x1="365.5" y1="342" x2="365.5" y2="407"/>
		<line class="st4" x1="343.5" y1="344" x2="343.5" y2="409"/>
		<line class="st4" x1="321.3" y1="344.4" x2="321.3" y2="409.4"/>
		<line class="st4" x1="298.8" y1="342.9" x2="298.8" y2="407.9"/>
		<line class="st4" x1="273.5" y1="345" x2="273.5" y2="410"/>
		<line class="st4" x1="250.5" y1="345.7" x2="250.5" y2="410.7"/>
		<line class="st4" x1="227" y1="344.2" x2="227" y2="409.2"/>
		<line class="st4" x1="205" y1="346.2" x2="205" y2="411.2"/>
		<line class="st4" x1="182.5" y1="345" x2="182.5" y2="410"/>
		<line class="st4" x1="160.3" y1="345.1" x2="160.3" y2="410.1"/>
		<line class="st4" x1="134.5" y1="345" x2="134.5" y2="410"/>
	</g>
</g>
<g id="Layer_1_copy">
	<path class="st3" d="M150.2,365.5l33.7,20.4c43.9,26.6,112-5.5,152.2-71.7s37-141.4-6.9-168.1L300.8,129"/>
	
		<ellipse transform="matrix(0.5182 -0.8552 0.8552 0.5182 -102.8308 311.0977)" class="st3" cx="224.7" cy="246.8" rx="140.2" ry="93"/>
	
		<ellipse transform="matrix(0.5182 -0.8552 0.8552 0.5182 -102.7756 309.3603)" class="st3" cx="223.2" cy="245.9" rx="109.8" ry="71.7"/>
	<line class="st3" x1="187.9" y1="375.9" x2="219.7" y2="395.2"/>
	<line class="st3" x1="210.5" y1="372.8" x2="242.3" y2="392.1"/>
	<line class="st3" x1="229.4" y1="365.5" x2="261.2" y2="384.8"/>
	<line class="st3" x1="246.2" y1="355.9" x2="278" y2="375.2"/>
	<line class="st3" x1="267.9" y1="339.6" x2="299.7" y2="358.9"/>
	<line class="st3" x1="285.4" y1="321" x2="317.2" y2="340.2"/>
	<line class="st3" x1="300.2" y1="300.5" x2="332" y2="319.8"/>
	<line class="st3" x1="312.8" y1="281.3" x2="344.6" y2="300.6"/>
	<line class="st3" x1="319.9" y1="262.7" x2="351.7" y2="281.9"/>
	<line class="st3" x1="326.5" y1="241.6" x2="358.3" y2="260.9"/>
	<line class="st3" x1="330.6" y1="221.1" x2="362.4" y2="240.4"/>
	<line class="st3" x1="332.2" y1="199.1" x2="364" y2="218.4"/>
	<polyline class="st3" points="331,179.6 361.7,198.2 362.9,197.9 	"/>
	<line class="st3" x1="323.2" y1="156.1" x2="354.4" y2="175"/>
</g>
</svg>
